<svg width="685.938" height="81.885" viewBox="0 0 685.938 81.885" xmlns="http://www.w3.org/2000/svg"><g id="svgGroup" stroke-linecap="round" fill-rule="evenodd" font-size="9pt" stroke="#000" stroke-width="0.25mm" fill="#000" style="stroke:#000;stroke-width:0.25mm;fill:#000"><path d="M 574.707 73.193 L 574.707 6.787 Q 574.707 5.127 575 3.833 A 4.743 4.743 0 0 1 575.436 2.639 A 3.918 3.918 0 0 1 576.123 1.709 A 4.396 4.396 0 0 1 577.112 0.977 Q 577.686 0.659 578.418 0.44 Q 579.883 0 582.227 0 L 603.613 0 A 19.017 19.017 0 0 1 604.931 0.043 Q 605.609 0.09 606.183 0.189 A 7.707 7.707 0 0 1 607.227 0.44 A 6.247 6.247 0 0 1 608.241 0.861 Q 608.827 1.172 609.256 1.588 A 3.789 3.789 0 0 1 609.375 1.709 A 3.999 3.999 0 0 1 610.207 3.07 A 5.208 5.208 0 0 1 610.425 3.833 A 12.277 12.277 0 0 1 610.624 5.196 Q 610.685 5.851 610.692 6.578 A 20.1 20.1 0 0 1 610.693 6.787 L 610.693 42.041 L 622.412 30.42 A 5.022 5.022 0 0 1 622.8 30.068 Q 623.003 29.904 623.198 29.788 A 2.404 2.404 0 0 1 623.438 29.663 A 2.961 2.961 0 0 1 623.79 29.529 Q 623.975 29.473 624.144 29.454 A 1.513 1.513 0 0 1 624.316 29.443 A 1.891 1.891 0 0 1 625.678 30.014 A 2.639 2.639 0 0 1 625.83 30.176 L 628.272 32.715 A 2.929 2.929 0 0 1 628.56 33.117 Q 628.696 33.347 628.758 33.57 A 1.373 1.373 0 0 1 628.809 33.936 A 1.701 1.701 0 0 1 628.666 34.607 A 2.358 2.358 0 0 1 628.442 35.01 A 3.368 3.368 0 0 1 628.136 35.391 Q 627.791 35.765 627.246 36.182 L 611.963 47.461 A 34.405 34.405 0 0 1 614.824 47.677 Q 617.059 47.946 618.799 48.511 Q 621.582 49.414 623.291 51.123 A 9.626 9.626 0 0 1 625.483 54.56 A 11.654 11.654 0 0 1 625.757 55.371 Q 626.465 57.747 626.511 60.848 A 29.29 29.29 0 0 1 626.514 61.279 L 626.514 77.686 Q 626.514 78.506 626.299 78.969 A 1.491 1.491 0 0 1 626.294 78.98 A 2.252 2.252 0 0 1 626.115 79.293 Q 625.955 79.526 625.757 79.663 A 1.524 1.524 0 0 1 625.244 79.889 A 1.938 1.938 0 0 1 625 79.932 A 7.953 7.953 0 0 1 624.121 79.981 L 620.996 79.981 A 3.387 3.387 0 0 1 620.434 79.938 Q 619.638 79.803 619.36 79.248 A 3.447 3.447 0 0 1 618.994 77.686 L 618.994 60.791 A 20.098 20.098 0 0 0 618.938 59.244 Q 618.881 58.504 618.765 57.871 A 9.243 9.243 0 0 0 618.579 57.056 A 5.762 5.762 0 0 0 618.067 55.788 A 4.525 4.525 0 0 0 617.188 54.663 A 5.142 5.142 0 0 0 615.896 53.801 Q 615.323 53.529 614.635 53.348 A 8.671 8.671 0 0 0 614.624 53.345 A 13.438 13.438 0 0 0 613.327 53.078 Q 612.158 52.893 610.693 52.832 L 610.693 73.291 A 14.711 14.711 0 0 1 610.633 74.664 Q 610.555 75.496 610.376 76.196 A 4.37 4.37 0 0 1 609.18 78.296 A 4.402 4.402 0 0 1 608.149 79.031 Q 607.532 79.355 606.738 79.565 A 10.695 10.695 0 0 1 605.472 79.814 Q 604.801 79.908 604.019 79.949 A 24.649 24.649 0 0 1 602.734 79.981 L 582.227 79.981 A 20.491 20.491 0 0 1 580.719 79.929 Q 580.007 79.876 579.402 79.77 A 8.604 8.604 0 0 1 578.418 79.541 Q 577.162 79.164 576.373 78.501 A 3.935 3.935 0 0 1 576.123 78.272 A 4.106 4.106 0 0 1 575.129 76.633 A 5.121 5.121 0 0 1 575 76.172 Q 574.748 75.081 574.713 73.665 A 18.879 18.879 0 0 1 574.707 73.193 Z M 420.117 38.086 L 420.117 68.066 A 13.656 13.656 0 0 0 420.189 69.516 Q 420.347 70.991 420.854 71.899 A 3.47 3.47 0 0 0 421.021 72.168 A 2.828 2.828 0 0 0 422.523 73.26 Q 423.018 73.423 423.627 73.469 A 6.61 6.61 0 0 0 424.121 73.486 Q 425.244 73.486 426.489 72.998 A 18.429 18.429 0 0 0 427.213 72.698 Q 427.948 72.372 428.418 72.07 L 428.418 32.275 Q 428.418 31.445 428.784 30.713 A 1.18 1.18 0 0 1 429.415 30.147 Q 429.64 30.053 429.93 30.012 A 3.514 3.514 0 0 1 430.42 29.981 L 433.545 29.981 A 7.953 7.953 0 0 1 434.424 30.029 A 1.813 1.813 0 0 1 434.845 30.125 A 1.471 1.471 0 0 1 435.181 30.298 A 1.349 1.349 0 0 1 435.465 30.568 Q 435.605 30.742 435.718 30.982 Q 435.933 31.436 435.937 32.242 A 6.188 6.188 0 0 1 435.938 32.275 L 435.938 77.686 Q 435.938 78.506 435.723 78.969 A 1.491 1.491 0 0 1 435.718 78.98 A 2.252 2.252 0 0 1 435.539 79.293 Q 435.379 79.526 435.181 79.663 A 1.524 1.524 0 0 1 434.668 79.889 A 1.938 1.938 0 0 1 434.424 79.932 A 7.953 7.953 0 0 1 433.545 79.981 L 430.42 79.981 A 3.387 3.387 0 0 1 429.858 79.938 Q 429.062 79.803 428.784 79.248 Q 428.418 78.516 428.418 76.904 A 207.377 207.377 0 0 1 427.827 77.118 Q 427.163 77.357 426.272 77.674 A 765.387 765.387 0 0 1 425.415 77.979 A 29.986 29.986 0 0 1 423.828 78.488 Q 423.108 78.699 422.29 78.907 A 63.359 63.359 0 0 1 420.557 79.321 Q 418.199 79.852 415.162 80.272 A 100.202 100.202 0 0 1 413.647 80.469 A 61.934 61.934 0 0 1 409.665 80.819 Q 407.265 80.957 404.541 80.957 A 53.4 53.4 0 0 1 400.494 80.812 Q 397.71 80.6 395.435 80.078 A 19.149 19.149 0 0 1 392.333 79.099 A 13.847 13.847 0 0 1 389.087 77.222 A 11.716 11.716 0 0 1 385.469 72.365 A 13.94 13.94 0 0 1 385.352 72.07 Q 384.131 68.897 384.131 64.258 L 384.131 36.768 Q 384.131 35.107 384.424 33.814 A 4.743 4.743 0 0 1 384.86 32.619 A 3.918 3.918 0 0 1 385.547 31.69 A 4.396 4.396 0 0 1 386.536 30.957 Q 387.109 30.64 387.842 30.42 Q 389.307 29.981 391.65 29.981 L 413.037 29.981 A 15.5 15.5 0 0 1 414.598 30.054 Q 416.177 30.214 417.176 30.726 A 4.214 4.214 0 0 1 417.334 30.811 A 6.276 6.276 0 0 1 418.414 31.573 A 4.499 4.499 0 0 1 419.434 32.861 A 5.855 5.855 0 0 1 420.093 35.498 A 173.86 173.86 0 0 1 420.111 36.853 A 130.933 130.933 0 0 1 420.117 38.086 Z M 670.117 38.086 L 670.117 68.066 A 13.656 13.656 0 0 0 670.189 69.516 Q 670.347 70.991 670.854 71.899 A 3.47 3.47 0 0 0 671.021 72.168 A 2.828 2.828 0 0 0 672.523 73.26 Q 673.018 73.423 673.627 73.469 A 6.61 6.61 0 0 0 674.121 73.486 Q 675.244 73.486 676.489 72.998 A 18.429 18.429 0 0 0 677.213 72.698 Q 677.948 72.372 678.418 72.07 L 678.418 32.275 Q 678.418 31.445 678.784 30.713 A 1.18 1.18 0 0 1 679.415 30.147 Q 679.64 30.053 679.93 30.012 A 3.514 3.514 0 0 1 680.42 29.981 L 683.545 29.981 A 7.953 7.953 0 0 1 684.424 30.029 A 1.813 1.813 0 0 1 684.845 30.125 A 1.471 1.471 0 0 1 685.181 30.298 A 1.349 1.349 0 0 1 685.465 30.568 Q 685.605 30.742 685.718 30.982 Q 685.933 31.436 685.937 32.242 A 6.188 6.188 0 0 1 685.938 32.275 L 685.938 77.686 Q 685.938 78.506 685.723 78.969 A 1.491 1.491 0 0 1 685.718 78.98 A 2.252 2.252 0 0 1 685.539 79.293 Q 685.379 79.526 685.181 79.663 A 1.524 1.524 0 0 1 684.668 79.889 A 1.938 1.938 0 0 1 684.424 79.932 A 7.953 7.953 0 0 1 683.545 79.981 L 680.42 79.981 A 3.387 3.387 0 0 1 679.858 79.938 Q 679.062 79.803 678.784 79.248 Q 678.418 78.516 678.418 76.904 A 207.377 207.377 0 0 1 677.827 77.118 Q 677.163 77.357 676.272 77.674 A 765.387 765.387 0 0 1 675.415 77.979 A 29.986 29.986 0 0 1 673.828 78.488 Q 673.108 78.699 672.29 78.907 A 63.359 63.359 0 0 1 670.557 79.321 Q 668.199 79.852 665.162 80.272 A 100.202 100.202 0 0 1 663.647 80.469 A 61.934 61.934 0 0 1 659.665 80.819 Q 657.265 80.957 654.541 80.957 A 53.4 53.4 0 0 1 650.494 80.812 Q 647.71 80.6 645.435 80.078 A 19.149 19.149 0 0 1 642.333 79.099 A 13.847 13.847 0 0 1 639.087 77.222 A 11.716 11.716 0 0 1 635.469 72.365 A 13.94 13.94 0 0 1 635.352 72.07 Q 634.131 68.897 634.131 64.258 L 634.131 36.768 Q 634.131 35.107 634.424 33.814 A 4.743 4.743 0 0 1 634.86 32.619 A 3.918 3.918 0 0 1 635.547 31.69 A 4.396 4.396 0 0 1 636.536 30.957 Q 637.109 30.64 637.842 30.42 Q 639.307 29.981 641.65 29.981 L 663.037 29.981 A 15.5 15.5 0 0 1 664.598 30.054 Q 666.177 30.214 667.176 30.726 A 4.214 4.214 0 0 1 667.334 30.811 A 6.276 6.276 0 0 1 668.414 31.573 A 4.499 4.499 0 0 1 669.434 32.861 A 5.855 5.855 0 0 1 670.093 35.498 A 173.86 173.86 0 0 1 670.111 36.853 A 130.933 130.933 0 0 1 670.117 38.086 Z M 500.342 6.787 L 500.342 73.193 Q 500.342 74.902 500.049 76.172 A 4.629 4.629 0 0 1 499.577 77.413 A 3.959 3.959 0 0 1 498.926 78.272 A 4.396 4.396 0 0 1 497.937 79.004 Q 497.363 79.321 496.631 79.541 Q 495.166 79.981 492.822 79.981 L 471.484 79.981 A 53.632 53.632 0 0 1 464.429 79.321 A 33.736 33.736 0 0 1 457.788 77.564 Q 454.639 76.367 451.929 74.439 A 20.025 20.025 0 0 1 447.241 69.751 Q 445.264 66.992 444.141 63.257 Q 443.035 59.578 443.018 54.834 A 41.418 41.418 0 0 1 443.018 54.688 A 35.38 35.38 0 0 1 443.322 49.92 Q 443.739 46.859 444.727 44.36 A 22.689 22.689 0 0 1 447.177 39.733 A 19.19 19.19 0 0 1 449.365 37.109 A 22.172 22.172 0 0 1 456.177 32.471 Q 460.059 30.762 464.356 29.981 L 464.356 6.836 A 20.336 20.336 0 0 1 464.402 5.42 Q 464.451 4.722 464.551 4.111 A 11.431 11.431 0 0 1 464.6 3.833 A 4.806 4.806 0 0 1 464.978 2.649 A 3.925 3.925 0 0 1 465.625 1.685 A 4.092 4.092 0 0 1 466.724 0.843 A 5.752 5.752 0 0 1 467.773 0.415 Q 469.141 0 471.436 0 L 492.822 0 A 20.491 20.491 0 0 1 494.33 0.052 Q 495.042 0.105 495.646 0.211 A 8.604 8.604 0 0 1 496.631 0.44 Q 497.887 0.816 498.676 1.48 A 3.935 3.935 0 0 1 498.926 1.709 A 4.05 4.05 0 0 1 499.869 3.215 A 5.139 5.139 0 0 1 500.049 3.833 Q 500.333 5.087 500.342 6.684 A 18.628 18.628 0 0 1 500.342 6.787 Z M 12.207 61.182 L 15.625 26.66 A 24.215 24.215 0 0 1 16.4 22.482 Q 17.151 19.834 18.506 17.773 A 18.44 18.44 0 0 1 24.316 12.085 A 23.707 23.707 0 0 1 31.372 9.227 A 26.951 26.951 0 0 1 32.031 9.082 A 42.306 42.306 0 0 1 40.625 8.203 Q 44.189 8.203 47.607 8.496 A 146.152 146.152 0 0 1 50.891 8.814 A 114.052 114.052 0 0 1 53.906 9.18 A 138.014 138.014 0 0 1 55.957 9.473 Q 56.968 9.625 57.86 9.778 A 72.229 72.229 0 0 1 58.887 9.961 A 552.683 552.683 0 0 1 59.866 10.144 Q 61.231 10.4 61.963 10.547 A 1.452 1.452 0 0 1 62.191 10.623 Q 62.549 10.779 62.549 11.084 A 0.502 0.502 0 0 1 62.545 11.134 Q 62.531 11.273 62.451 11.67 L 61.719 15.186 A 1.364 1.364 0 0 1 61.667 15.335 Q 61.604 15.487 61.518 15.558 A 0.278 0.278 0 0 1 61.45 15.601 A 1.006 1.006 0 0 1 61.308 15.65 Q 61.228 15.671 61.154 15.674 A 0.597 0.597 0 0 1 61.133 15.674 A 10.589 10.589 0 0 0 59.365 15.814 Q 58.301 15.994 57.422 16.406 Q 55.859 17.139 54.834 18.457 A 8.906 8.906 0 0 0 53.618 20.591 A 10.891 10.891 0 0 0 53.272 21.582 A 19.243 19.243 0 0 0 52.695 24.205 A 22.858 22.858 0 0 0 52.539 25.488 L 49.609 60.986 A 23.782 23.782 0 0 1 47.412 69.092 A 20.405 20.405 0 0 1 42.383 75.732 A 22.125 22.125 0 0 1 37.588 78.913 A 28.05 28.05 0 0 1 34.473 80.225 A 28.082 28.082 0 0 1 28.937 81.544 A 37.991 37.991 0 0 1 23.731 81.885 A 76.666 76.666 0 0 1 16.922 81.591 A 69.146 69.146 0 0 1 15.918 81.494 A 115.408 115.408 0 0 1 12.329 81.067 A 86.684 86.684 0 0 1 9.082 80.566 A 135.608 135.608 0 0 1 6.895 80.167 Q 5.173 79.837 3.784 79.517 A 456.535 456.535 0 0 1 2.751 79.277 Q 1.47 78.978 0.748 78.8 A 56.599 56.599 0 0 1 0.586 78.76 A 1.452 1.452 0 0 1 0.358 78.684 Q 0 78.528 0 78.223 A 0.278 0.278 0 0 1 0.003 78.191 Q 0.018 78.086 0.097 77.687 A 6.307 6.307 0 0 0 0.098 77.686 L 0.928 73.975 A 1.364 1.364 0 0 1 0.979 73.825 Q 1.043 73.673 1.128 73.602 A 0.278 0.278 0 0 1 1.196 73.56 A 1.006 1.006 0 0 1 1.339 73.51 Q 1.419 73.489 1.493 73.487 A 0.597 0.597 0 0 1 1.514 73.486 A 12.76 12.76 0 0 0 4.189 73.215 A 11.013 11.013 0 0 0 5.493 72.852 A 7.834 7.834 0 0 0 8.691 70.752 A 9.919 9.919 0 0 0 9.996 68.978 Q 10.531 68.06 10.962 66.943 Q 11.702 65.023 12.065 62.382 A 32.708 32.708 0 0 0 12.207 61.182 Z M 331.934 61.182 L 335.352 26.66 A 24.215 24.215 0 0 1 336.126 22.482 Q 336.877 19.834 338.232 17.773 A 18.44 18.44 0 0 1 344.043 12.085 A 23.707 23.707 0 0 1 351.099 9.227 A 26.951 26.951 0 0 1 351.758 9.082 A 42.306 42.306 0 0 1 360.352 8.203 Q 363.916 8.203 367.334 8.496 A 146.152 146.152 0 0 1 370.618 8.814 A 114.052 114.052 0 0 1 373.633 9.18 A 138.014 138.014 0 0 1 375.684 9.473 Q 376.695 9.625 377.586 9.778 A 72.229 72.229 0 0 1 378.613 9.961 A 552.683 552.683 0 0 1 379.593 10.144 Q 380.957 10.4 381.689 10.547 A 1.452 1.452 0 0 1 381.918 10.623 Q 382.275 10.779 382.275 11.084 A 0.502 0.502 0 0 1 382.272 11.134 Q 382.257 11.273 382.178 11.67 L 381.445 15.186 A 1.364 1.364 0 0 1 381.394 15.335 Q 381.33 15.487 381.245 15.558 A 0.278 0.278 0 0 1 381.177 15.601 A 1.006 1.006 0 0 1 381.034 15.65 Q 380.954 15.671 380.881 15.674 A 0.597 0.597 0 0 1 380.859 15.674 A 10.589 10.589 0 0 0 379.092 15.814 Q 378.027 15.994 377.148 16.406 Q 375.586 17.139 374.561 18.457 A 8.906 8.906 0 0 0 373.344 20.591 A 10.891 10.891 0 0 0 372.998 21.582 A 19.243 19.243 0 0 0 372.421 24.205 A 22.858 22.858 0 0 0 372.266 25.488 L 369.336 60.986 A 23.782 23.782 0 0 1 367.139 69.092 A 20.405 20.405 0 0 1 362.109 75.732 A 22.125 22.125 0 0 1 357.314 78.913 A 28.05 28.05 0 0 1 354.199 80.225 A 28.082 28.082 0 0 1 348.663 81.544 A 37.991 37.991 0 0 1 343.457 81.885 A 76.666 76.666 0 0 1 336.648 81.591 A 69.146 69.146 0 0 1 335.645 81.494 A 115.408 115.408 0 0 1 332.056 81.067 A 86.684 86.684 0 0 1 328.809 80.566 A 135.608 135.608 0 0 1 326.622 80.167 Q 324.899 79.837 323.511 79.517 A 456.535 456.535 0 0 1 322.478 79.277 Q 321.196 78.978 320.475 78.8 A 56.599 56.599 0 0 1 320.313 78.76 A 1.452 1.452 0 0 1 320.084 78.684 Q 319.727 78.528 319.727 78.223 A 0.278 0.278 0 0 1 319.73 78.191 Q 319.744 78.086 319.824 77.687 A 6.307 6.307 0 0 0 319.824 77.686 L 320.654 73.975 A 1.364 1.364 0 0 1 320.706 73.825 Q 320.769 73.673 320.855 73.602 A 0.278 0.278 0 0 1 320.923 73.56 A 1.006 1.006 0 0 1 321.065 73.51 Q 321.145 73.489 321.219 73.487 A 0.597 0.597 0 0 1 321.24 73.486 A 12.76 12.76 0 0 0 323.916 73.215 A 11.013 11.013 0 0 0 325.22 72.852 A 7.834 7.834 0 0 0 328.418 70.752 A 9.919 9.919 0 0 0 329.722 68.978 Q 330.258 68.06 330.689 66.943 Q 331.429 65.023 331.792 62.382 A 32.708 32.708 0 0 0 331.934 61.182 Z M 129.297 73.193 L 129.297 6.787 Q 129.297 5.127 129.59 3.833 A 4.743 4.743 0 0 1 130.026 2.639 A 3.918 3.918 0 0 1 130.713 1.709 A 4.396 4.396 0 0 1 131.702 0.977 Q 132.275 0.659 133.008 0.44 Q 134.473 0 136.816 0 L 158.203 0 Q 160.449 0 161.816 0.415 A 6.002 6.002 0 0 1 162.831 0.821 Q 163.428 1.129 163.861 1.554 A 3.688 3.688 0 0 1 163.965 1.66 A 4.054 4.054 0 0 1 164.836 3.116 A 5.171 5.171 0 0 1 165.015 3.76 A 11.491 11.491 0 0 1 165.198 4.955 Q 165.262 5.571 165.278 6.266 A 20.595 20.595 0 0 1 165.283 6.738 L 165.283 73.291 A 15.929 15.929 0 0 1 165.227 74.664 Q 165.169 75.34 165.049 75.929 A 8.972 8.972 0 0 1 164.99 76.196 A 4.958 4.958 0 0 1 164.488 77.505 A 4.298 4.298 0 0 1 163.916 78.296 A 4.027 4.027 0 0 1 162.853 79.113 Q 162.388 79.365 161.82 79.542 A 6.985 6.985 0 0 1 161.743 79.565 A 8.492 8.492 0 0 1 160.633 79.81 Q 160.055 79.901 159.377 79.943 A 20.391 20.391 0 0 1 158.106 79.981 L 136.816 79.981 A 20.491 20.491 0 0 1 135.309 79.929 Q 134.597 79.876 133.992 79.77 A 8.604 8.604 0 0 1 133.008 79.541 Q 131.752 79.164 130.963 78.501 A 3.935 3.935 0 0 1 130.713 78.272 A 4.106 4.106 0 0 1 129.719 76.633 A 5.121 5.121 0 0 1 129.59 76.172 Q 129.338 75.081 129.303 73.665 A 18.879 18.879 0 0 1 129.297 73.193 Z M 281.787 70.215 L 283.496 72.852 A 2.197 2.197 0 0 1 283.624 73.085 Q 283.679 73.201 283.708 73.308 A 0.869 0.869 0 0 1 283.74 73.535 A 0.965 0.965 0 0 1 283.716 73.757 A 0.645 0.645 0 0 1 283.545 74.072 A 3.931 3.931 0 0 1 283.301 74.297 A 3.267 3.267 0 0 1 283.154 74.414 A 33.615 33.615 0 0 1 281.843 75.28 Q 281.106 75.744 280.258 76.234 A 63.673 63.673 0 0 1 279.199 76.831 A 30.004 30.004 0 0 1 276.666 78.07 A 40.744 40.744 0 0 1 273.755 79.199 A 41.237 41.237 0 0 1 270.233 80.237 A 54.888 54.888 0 0 1 266.748 80.982 A 43.306 43.306 0 0 1 262.106 81.554 A 55.622 55.622 0 0 1 258.154 81.69 A 46.289 46.289 0 0 1 250.83 81.104 A 35.49 35.49 0 0 1 243.823 79.248 Q 240.479 77.979 237.598 75.928 Q 234.717 73.877 232.593 70.898 A 22.905 22.905 0 0 1 230.029 66.182 A 27.713 27.713 0 0 1 229.248 63.989 A 26.181 26.181 0 0 1 228.3 59.525 A 36.041 36.041 0 0 1 228.027 54.981 A 34.804 34.804 0 0 1 228.33 50.28 A 26.053 26.053 0 0 1 229.248 46.069 Q 230.469 42.139 232.593 39.16 A 21.702 21.702 0 0 1 237.598 34.107 Q 240.479 32.031 243.823 30.737 Q 247.168 29.443 250.83 28.857 A 46.289 46.289 0 0 1 258.154 28.272 A 48.085 48.085 0 0 1 265.45 28.806 A 40.382 40.382 0 0 1 269.507 29.639 A 24.963 24.963 0 0 1 275.797 32.19 A 22.161 22.161 0 0 1 278.613 34.131 A 20.327 20.327 0 0 1 283.627 40.206 A 24.973 24.973 0 0 1 284.668 42.334 Q 286.571 46.733 286.826 52.853 A 46.483 46.483 0 0 1 286.865 54.785 L 286.865 57.52 Q 286.865 58.398 286.426 58.887 Q 286.098 59.251 285.446 59.343 A 3.454 3.454 0 0 1 284.961 59.375 L 264.746 59.375 A 30.089 30.089 0 0 0 265.125 61.917 Q 265.367 63.153 265.702 64.207 A 15.074 15.074 0 0 0 266.138 65.405 A 17.704 17.704 0 0 0 266.982 67.176 Q 267.654 68.396 268.433 69.263 A 8.631 8.631 0 0 0 269.694 70.425 A 6.542 6.542 0 0 0 271.24 71.289 Q 272.754 71.875 274.17 71.875 A 8.21 8.21 0 0 0 275.539 71.766 A 6.551 6.551 0 0 0 276.563 71.509 A 16.027 16.027 0 0 0 277.687 71.08 A 12.477 12.477 0 0 0 278.491 70.703 A 22.449 22.449 0 0 0 279.091 70.384 Q 279.556 70.126 279.907 69.898 Q 280.326 69.625 280.595 69.555 A 0.673 0.673 0 0 1 280.762 69.531 A 2.082 2.082 0 0 1 280.965 69.54 Q 281.244 69.568 281.372 69.678 Q 281.543 69.824 281.787 70.215 Z M 201.367 32.08 L 208.984 51.172 L 215.772 32.861 A 13.677 13.677 0 0 1 216.111 31.974 Q 216.403 31.29 216.724 30.786 Q 217.228 29.994 218.748 29.981 A 5.963 5.963 0 0 1 218.799 29.981 L 223.975 29.981 Q 224.888 29.981 225.213 30.326 A 0.68 0.68 0 0 1 225.391 30.811 A 1.697 1.697 0 0 1 225.357 31.122 Q 225.261 31.629 224.89 32.486 A 15.927 15.927 0 0 1 224.854 32.568 L 206.152 76.66 Q 205.68 77.807 205.127 78.557 A 4.779 4.779 0 0 1 204.614 79.15 A 2.785 2.785 0 0 1 203.409 79.827 Q 202.97 79.952 202.445 79.975 A 5.57 5.57 0 0 1 202.197 79.981 L 194.482 79.981 A 5.491 5.491 0 0 1 193.761 79.936 Q 193.201 79.862 192.773 79.663 Q 192.09 79.346 191.626 78.857 A 4.681 4.681 0 0 1 190.935 77.93 A 4.345 4.345 0 0 1 190.869 77.808 A 13.328 13.328 0 0 1 190.601 77.264 A 10.085 10.085 0 0 1 190.381 76.758 L 170.264 34.082 Q 169.824 33.154 169.824 32.373 A 2.714 2.714 0 0 1 169.915 31.649 A 1.814 1.814 0 0 1 170.752 30.542 A 3.954 3.954 0 0 1 171.781 30.096 A 3.383 3.383 0 0 1 172.656 29.981 L 196.484 29.981 A 25.334 25.334 0 0 1 197.345 29.994 Q 197.744 30.008 198.088 30.035 A 11.574 11.574 0 0 1 198.535 30.078 Q 199.365 30.176 199.902 30.444 A 3.16 3.16 0 0 1 200.418 30.764 A 2.534 2.534 0 0 1 200.781 31.104 A 3.069 3.069 0 0 1 201.117 31.574 A 4.173 4.173 0 0 1 201.367 32.08 Z M 84.814 81.104 A 46.289 46.289 0 0 0 92.139 81.69 A 57.042 57.042 0 0 0 99.121 81.25 A 36.33 36.33 0 0 0 106.03 79.712 Q 109.375 78.613 112.305 76.66 A 19.59 19.59 0 0 0 112.937 76.22 A 20.817 20.817 0 0 0 117.456 71.704 Q 119.678 68.701 120.947 64.478 A 24.753 24.753 0 0 0 121.201 63.571 Q 122.217 59.657 122.217 54.59 Q 122.217 51.659 121.852 49.134 A 25.969 25.969 0 0 0 120.923 44.995 Q 119.629 40.918 117.407 37.988 A 19.846 19.846 0 0 0 112.231 33.179 A 27.906 27.906 0 0 0 105.933 30.2 A 35.103 35.103 0 0 0 99.048 28.687 A 64.596 64.596 0 0 0 98.827 28.661 A 59.167 59.167 0 0 0 92.139 28.272 A 46.289 46.289 0 0 0 84.814 28.857 Q 81.152 29.443 77.808 30.737 Q 74.463 32.031 71.582 34.107 A 21.702 21.702 0 0 0 66.577 39.16 Q 64.453 42.139 63.232 46.069 A 26.053 26.053 0 0 0 62.315 50.28 A 34.804 34.804 0 0 0 62.012 54.981 A 36.041 36.041 0 0 0 62.284 59.525 A 26.181 26.181 0 0 0 63.232 63.989 A 27.713 27.713 0 0 0 64.014 66.182 A 22.905 22.905 0 0 0 66.577 70.898 Q 68.701 73.877 71.582 75.928 Q 74.463 77.979 77.808 79.248 A 35.49 35.49 0 0 0 84.814 81.104 Z M 530.225 81.104 A 46.289 46.289 0 0 0 537.549 81.69 A 57.042 57.042 0 0 0 544.531 81.25 A 36.33 36.33 0 0 0 551.44 79.712 Q 554.785 78.613 557.715 76.66 A 19.59 19.59 0 0 0 558.347 76.22 A 20.817 20.817 0 0 0 562.866 71.704 Q 565.088 68.701 566.357 64.478 A 24.753 24.753 0 0 0 566.611 63.571 Q 567.627 59.657 567.627 54.59 Q 567.627 51.659 567.262 49.134 A 25.969 25.969 0 0 0 566.333 44.995 Q 565.039 40.918 562.817 37.988 A 19.846 19.846 0 0 0 557.642 33.179 A 27.906 27.906 0 0 0 551.343 30.2 A 35.103 35.103 0 0 0 544.458 28.687 A 64.596 64.596 0 0 0 544.237 28.661 A 59.167 59.167 0 0 0 537.549 28.272 A 46.289 46.289 0 0 0 530.225 28.857 Q 526.563 29.443 523.218 30.737 Q 519.873 32.031 516.992 34.107 A 21.702 21.702 0 0 0 511.987 39.16 Q 509.863 42.139 508.643 46.069 A 26.053 26.053 0 0 0 507.725 50.28 A 34.804 34.804 0 0 0 507.422 54.981 A 36.041 36.041 0 0 0 507.695 59.525 A 26.181 26.181 0 0 0 508.643 63.989 A 27.713 27.713 0 0 0 509.424 66.182 A 22.905 22.905 0 0 0 511.987 70.898 Q 514.111 73.877 516.992 75.928 Q 519.873 77.979 523.218 79.248 A 35.49 35.49 0 0 0 530.225 81.104 Z M 464.356 73.047 L 464.356 36.231 A 19.724 19.724 0 0 0 461.021 36.895 A 14.628 14.628 0 0 0 457.813 38.257 A 14.125 14.125 0 0 0 453.707 41.798 A 13.609 13.609 0 0 0 453.345 42.285 A 16.59 16.59 0 0 0 451.128 46.724 A 19.519 19.519 0 0 0 450.781 47.9 A 25.709 25.709 0 0 0 450.017 52.715 A 30.583 30.583 0 0 0 449.951 54.736 A 27.868 27.868 0 0 0 450.326 59.382 A 23.96 23.96 0 0 0 450.781 61.499 Q 451.611 64.648 453.345 67.065 A 13.841 13.841 0 0 0 457.643 70.946 A 15.911 15.911 0 0 0 457.813 71.045 A 14.942 14.942 0 0 0 461.229 72.447 A 20.306 20.306 0 0 0 464.356 73.047 Z M 107.129 69.971 A 7.259 7.259 0 0 0 109.806 69.448 A 8.454 8.454 0 0 0 110.132 69.312 A 5.41 5.41 0 0 0 111.679 68.257 Q 112.203 67.756 112.672 67.084 A 9.553 9.553 0 0 0 112.769 66.943 Q 113.602 65.702 114.204 63.777 A 22.459 22.459 0 0 0 114.624 62.232 A 22.943 22.943 0 0 0 115.049 59.806 Q 115.332 57.525 115.332 54.59 A 45.174 45.174 0 0 0 115.248 51.753 Q 115.161 50.369 114.983 49.186 A 19.57 19.57 0 0 0 114.624 47.363 A 19.075 19.075 0 0 0 114.082 45.558 Q 113.762 44.664 113.379 43.933 A 8.807 8.807 0 0 0 112.744 42.896 Q 111.659 41.381 110.323 40.725 A 4.975 4.975 0 0 0 110.107 40.625 A 7.457 7.457 0 0 0 107.318 39.993 A 7.199 7.199 0 0 0 107.129 39.99 A 6.673 6.673 0 0 0 105.971 40.098 Q 105.282 40.219 104.517 40.479 Q 103.076 40.967 101.831 42.554 A 8.803 8.803 0 0 0 100.956 43.936 Q 100.574 44.672 100.243 45.575 A 20.761 20.761 0 0 0 99.756 47.095 A 18.595 18.595 0 0 0 99.283 49.359 Q 98.926 51.744 98.926 54.981 A 58.74 58.74 0 0 0 98.993 57.872 Q 99.135 60.747 99.579 62.758 A 17.254 17.254 0 0 0 99.609 62.891 Q 100.051 64.813 100.675 66.146 A 8.057 8.057 0 0 0 101.416 67.432 A 6.598 6.598 0 0 0 102.369 68.506 A 4.655 4.655 0 0 0 104.028 69.482 A 9.888 9.888 0 0 0 107.129 69.971 Z M 552.539 69.971 A 7.259 7.259 0 0 0 555.216 69.448 A 8.454 8.454 0 0 0 555.542 69.312 A 5.41 5.41 0 0 0 557.089 68.257 Q 557.614 67.756 558.082 67.084 A 9.553 9.553 0 0 0 558.179 66.943 Q 559.012 65.702 559.614 63.777 A 22.459 22.459 0 0 0 560.034 62.232 A 22.943 22.943 0 0 0 560.459 59.806 Q 560.742 57.525 560.742 54.59 A 45.174 45.174 0 0 0 560.659 51.753 Q 560.571 50.369 560.393 49.186 A 19.57 19.57 0 0 0 560.034 47.363 A 19.075 19.075 0 0 0 559.493 45.558 Q 559.172 44.664 558.789 43.933 A 8.807 8.807 0 0 0 558.154 42.896 Q 557.069 41.381 555.733 40.725 A 4.975 4.975 0 0 0 555.518 40.625 A 7.457 7.457 0 0 0 552.728 39.993 A 7.199 7.199 0 0 0 552.539 39.99 A 6.673 6.673 0 0 0 551.381 40.098 Q 550.692 40.219 549.927 40.479 Q 548.486 40.967 547.241 42.554 A 8.803 8.803 0 0 0 546.366 43.936 Q 545.984 44.672 545.653 45.575 A 20.761 20.761 0 0 0 545.166 47.095 A 18.595 18.595 0 0 0 544.693 49.359 Q 544.336 51.744 544.336 54.981 A 58.74 58.74 0 0 0 544.403 57.872 Q 544.545 60.747 544.99 62.758 A 17.254 17.254 0 0 0 545.02 62.891 Q 545.461 64.813 546.085 66.146 A 8.057 8.057 0 0 0 546.826 67.432 A 6.598 6.598 0 0 0 547.779 68.506 A 4.655 4.655 0 0 0 549.439 69.482 A 9.888 9.888 0 0 0 552.539 69.971 Z M 264.551 53.369 L 279.932 53.369 Q 279.932 49.463 279.321 46.899 Q 278.862 44.97 278.167 43.621 A 8.496 8.496 0 0 0 277.686 42.798 A 7.069 7.069 0 0 0 276.728 41.634 A 5.191 5.191 0 0 0 275.269 40.625 Q 273.877 39.99 272.363 39.99 A 6.672 6.672 0 0 0 271.125 40.113 Q 270.55 40.221 269.932 40.427 A 10.942 10.942 0 0 0 269.922 40.43 Q 268.734 40.826 267.684 42.015 A 8.43 8.43 0 0 0 267.456 42.285 A 8.113 8.113 0 0 0 266.644 43.519 Q 266.007 44.69 265.503 46.338 A 17.433 17.433 0 0 0 265.027 48.358 Q 264.647 50.485 264.551 53.369 Z" vector-effect="non-scaling-stroke"/></g></svg>